<svg id="applications" xmlns="http://www.w3.org/2000/svg" width="37.403" height="65.456" viewBox="0 0 37.403 65.456">
  <path id="Path_66" data-name="Path 66" d="M72,248h4.675v4.675H72Zm0,0" transform="translate(-61.48 -211.766)" fill="#e959a0"/>
  <path id="Path_67" data-name="Path 67" d="M145.371,244.677l3.306-3.306,3.306,3.306-3.306,3.306Zm0,0" transform="translate(-124.131 -206.105)" fill="#e959a0"/>
  <path id="Path_68" data-name="Path 68" d="M152,168h4.675v4.675H152Zm0,0" transform="translate(-129.792 -143.454)" fill="#e959a0"/>
  <path id="Path_69" data-name="Path 69" d="M37.4,3.507A3.507,3.507,0,0,0,33.9,0H3.507A3.507,3.507,0,0,0,0,3.507V4.675H37.4Zm-22.208,0H14.026a1.169,1.169,0,1,1,0-2.338H15.2a1.169,1.169,0,0,1,0,2.338Zm8.182,0H18.7a1.169,1.169,0,1,1,0-2.338h4.675a1.169,1.169,0,1,1,0,2.338Zm0,0" fill="#e959a0"/>
  <path id="Path_70" data-name="Path 70" d="M72,168h4.675v4.675H72Zm0,0" transform="translate(-61.48 -143.454)" fill="#e959a0"/>
  <path id="Path_71" data-name="Path 71" d="M37.4,48H0V99.43H37.4ZM19.871,64.364A1.169,1.169,0,0,1,21.039,63.2h7.013a1.169,1.169,0,0,1,1.169,1.169v7.013a1.169,1.169,0,0,1-1.169,1.169H21.039a1.169,1.169,0,0,1-1.169-1.169Zm-2.338,18.7a1.169,1.169,0,0,1-1.169,1.169H9.351a1.169,1.169,0,0,1-1.169-1.169V76.052a1.169,1.169,0,0,1,1.169-1.169h7.013a1.169,1.169,0,0,1,1.169,1.169Zm0-11.689a1.169,1.169,0,0,1-1.169,1.169H9.351a1.169,1.169,0,0,1-1.169-1.169V64.364A1.169,1.169,0,0,1,9.351,63.2h7.013a1.169,1.169,0,0,1,1.169,1.169Zm12.8,9.008-4.96,4.96a1.169,1.169,0,0,1-1.653,0l-4.96-4.96a1.169,1.169,0,0,1,0-1.653l4.96-4.96a1.169,1.169,0,0,1,1.653,0l4.96,4.96A1.169,1.169,0,0,1,30.332,80.385Zm0,0" transform="translate(0 -40.987)" fill="#e959a0"/>
  <path id="Path_72" data-name="Path 72" d="M37.4,416H0v1.169a3.507,3.507,0,0,0,3.507,3.507H33.9a3.507,3.507,0,0,0,3.507-3.507Zm-16.364,3.507H16.364a1.169,1.169,0,0,1,0-2.338h4.675a1.169,1.169,0,1,1,0,2.338Zm0,0" transform="translate(0 -355.22)" fill="#e959a0"/>
</svg>
