<svg xmlns="http://www.w3.org/2000/svg" width="78.376" height="50.506" viewBox="0 0 78.376 50.506">
  <g id="Coupon" transform="translate(-309.5 -377.2)">
    <path id="Path_114" data-name="Path 114" d="M387.876,378.877v47.132a2.722,2.722,0,0,1-2.617,1.7q-26.01-.031-52.04-.02h-.757c0-2.351.02-4.56,0-6.789a2.293,2.293,0,1,0-4.58.02c-.02,1.574,0,3.169,0,4.744v2.024H312.117a2.357,2.357,0,0,1-2.617-2.658v-13a2.357,2.357,0,0,1,2.576-2.7,6.887,6.887,0,0,0,.02-13.761c-1.779-.082-2.6-.92-2.6-2.679v-13a2.351,2.351,0,0,1,2.658-2.679h15.07c.245,0,.491.02.8.041v6.625a2.363,2.363,0,0,0,2.29,2.536,2.3,2.3,0,0,0,2.29-2.515v-6.646h1.1q25.519,0,51.038-.02C386.22,377.18,387.263,377.548,387.876,378.877Zm-13.782,10.081a2.429,2.429,0,0,0-1.513-2.433,2.29,2.29,0,0,0-2.822,1.063c-2.454,3.66-4.887,7.341-7.341,11-3.6,5.4-7.218,10.8-10.8,16.215a2.286,2.286,0,0,0,.511,3.313,2.319,2.319,0,0,0,3.313-.757c.429-.634.859-1.268,1.268-1.9q8.373-12.545,16.726-25.11A7.781,7.781,0,0,0,374.095,388.957Zm-20.632-2.576a6.891,6.891,0,1,0,6.85,6.952A6.9,6.9,0,0,0,353.463,386.381Zm18.321,32.144a6.881,6.881,0,1,0-6.87-6.932A6.926,6.926,0,0,0,371.784,418.525ZM332.463,395.6c0-.8.02-1.574,0-2.372a2.29,2.29,0,0,0-4.58.02c-.02,1.534-.02,3.047,0,4.58a2.3,2.3,0,0,0,2.27,2.311,2.275,2.275,0,0,0,2.311-2.331C332.483,397.075,332.463,396.339,332.463,395.6Zm-4.58,13.68c0,.8-.02,1.574,0,2.372a2.29,2.29,0,0,0,4.58-.02c.02-1.534.02-3.047,0-4.58a2.29,2.29,0,1,0-4.58.02C327.862,407.81,327.883,408.546,327.883,409.283Z" fill="#e959a0"/>
    <path id="Path_115" data-name="Path 115" d="M515.47,444.6a2.29,2.29,0,1,1-2.27,2.29A2.323,2.323,0,0,1,515.47,444.6Z" transform="translate(-162.048 -53.618)" fill="#e959a0"/>
    <path id="Path_116" data-name="Path 116" d="M605.228,538.97A2.337,2.337,0,0,1,603,536.639a2.291,2.291,0,1,1,2.229,2.331Z" transform="translate(-233.485 -125.046)" fill="#e959a0"/>
  </g>
</svg>
