<svg id="folder" xmlns="http://www.w3.org/2000/svg" width="76.223" height="58.06" viewBox="0 0 76.223 58.06">
  <path id="Path_73" data-name="Path 73" d="M4.466,81.1a6.707,6.707,0,0,1,6.7-6.7H49.872a6.707,6.707,0,0,1,6.7,6.7v2.233h4.466V75.887a5.962,5.962,0,0,0-5.955-5.955h-26.8V66.955A5.962,5.962,0,0,0,22.331,61H5.955A5.962,5.962,0,0,0,0,66.955v40.8l4.466-7.151Z" transform="translate(0 -61)" fill="#e959a0"/>
  <path id="Path_74" data-name="Path 74" d="M100.94,181H62.233A2.233,2.233,0,0,0,60,183.233V195.59l4.356-6.974a6.661,6.661,0,0,1,5.682-3.15h33.135v-2.233A2.233,2.233,0,0,0,100.94,181Z" transform="translate(-51.068 -163.135)" fill="#e959a0"/>
  <path id="Path_75" data-name="Path 75" d="M58.831,272.262H2.26a2.233,2.233,0,0,1-1.894-3.416l16.737-26.8A2.233,2.233,0,0,1,19,241H71.034a5.211,5.211,0,0,1,4.349,8.08l-14.69,22.183A2.233,2.233,0,0,1,58.831,272.262Z" transform="translate(-0.023 -214.202)" fill="#e959a0"/>
</svg>
