<svg id="Line" xmlns="http://www.w3.org/2000/svg" width="66.936" height="65.342" viewBox="0 0 66.936 65.342">
  <path id="Path_91" data-name="Path 91" d="M39.216,28.166,32.761,24.66,25,57.076H42.531V33.76a6.375,6.375,0,0,0-3.316-5.595Z" transform="translate(10.062 8.266)" fill="#e959a0"/>
  <path id="Path_92" data-name="Path 92" d="M23.937,11.969a7.969,7.969,0,1,0-7.969,7.969,7.873,7.873,0,0,0,4.67-1.594,14.344,14.344,0,0,1,2.885-3.984A7.49,7.49,0,0,0,23.937,11.969Z" transform="translate(-0.031 -4)" fill="#e959a0"/>
  <circle id="Ellipse_3" data-name="Ellipse 3" cx="11.091" cy="11.091" r="11.091" transform="translate(22.371 9.605)" fill="#e959a0"/>
  <path id="Path_93" data-name="Path 93" d="M45.937,11.969a7.969,7.969,0,1,0-15.937,0,7.49,7.49,0,0,0,.414,2.454A14.343,14.343,0,0,1,33.3,18.343a7.873,7.873,0,0,0,4.67,1.594A7.969,7.969,0,0,0,45.937,11.969Z" transform="translate(13.03 -4)" fill="#e959a0"/>
  <path id="Path_94" data-name="Path 94" d="M22.125,18.336a13.276,13.276,0,0,1,.175-2.12,11.315,11.315,0,0,1-3.363.526,11.156,11.156,0,0,1-6.375-1.992L7.144,16.742A6.375,6.375,0,0,0,3,22.75V45.429H14.156V39.644a9.562,9.562,0,0,1,4.988-8.383l6.486-3.554a14.343,14.343,0,0,1-3.506-9.371Z" transform="translate(-3 2.382)" fill="#e959a0"/>
  <path id="Path_95" data-name="Path 95" d="M49.287,16.742,43.868,14.75a11.156,11.156,0,0,1-6.375,1.992,11.315,11.315,0,0,1-3.363-.526,13.275,13.275,0,0,1,.175,2.12A14.343,14.343,0,0,1,30.8,27.707l6.486,3.554a9.562,9.562,0,0,1,4.988,8.383v5.785H53.431V22.75A6.375,6.375,0,0,0,49.287,16.742Z" transform="translate(13.505 2.382)" fill="#e959a0"/>
  <path id="Path_96" data-name="Path 96" d="M26.187,28.594V42.108L24.594,48.8,23,42.108V28.594a1.594,1.594,0,1,1,3.187,0Z" transform="translate(8.874 9.655)" fill="#e959a0"/>
  <path id="Path_97" data-name="Path 97" d="M26.187,28.594V42.108L24.594,48.8,23,42.108V28.594a1.594,1.594,0,1,1,3.187,0Z" transform="translate(8.874 9.655)" fill="#e959a0"/>
  <path id="Path_98" data-name="Path 98" d="M15.315,28.166A6.375,6.375,0,0,0,12,33.76V57.076H29.531L21.769,24.66Z" transform="translate(2.344 8.266)" fill="#e959a0"/>
</svg>
