<svg id="medical-appointment" xmlns="http://www.w3.org/2000/svg" width="57.041" height="58.06" viewBox="0 0 57.041 58.06">
  <path id="Path_76" data-name="Path 76" d="M29.112,33.167V38.26h2.037V33.167a1.019,1.019,0,0,1,1.019-1.019H37.26V30.112H32.167a1.019,1.019,0,0,1-1.019-1.019V24H29.112v5.093a1.019,1.019,0,0,1-1.019,1.019H23v2.037h5.093A1.019,1.019,0,0,1,29.112,33.167Z" transform="translate(-1.61 -1.591)" fill="#e959a0"/>
  <path id="Path_77" data-name="Path 77" d="M11,43.19a11.393,11.393,0,0,0,2.17,6.539,6.089,6.089,0,0,1,8.485.591H37.667L41.038,45.9a7.109,7.109,0,0,1,4.767-2.679,7.011,7.011,0,0,1,3.881.632c.01-.224.02-.448.02-.662a13.08,13.08,0,0,0-5.225-10.4,14.243,14.243,0,0,1-28.256,0A13.08,13.08,0,0,0,11,43.19Z" transform="translate(-1.833 -1.428)" fill="#e959a0"/>
  <path id="Path_78" data-name="Path 78" d="M49.285,46.08c-.01,0-.01,0-.02-.01a5.093,5.093,0,0,0-7.151.845L39.69,50.093H51.2A5.1,5.1,0,0,0,49.285,46.08Z" transform="translate(-1.299 -1.201)" fill="#e959a0"/>
  <path id="Path_79" data-name="Path 79" d="M2,47.613a3.065,3.065,0,0,0,3.056,3.056H11.3a13.155,13.155,0,0,1-2.17-7.13,15.268,15.268,0,0,1,7.161-12.814,14.241,14.241,0,0,1,28.459,0,15.268,15.268,0,0,1,7.161,12.814,11.815,11.815,0,0,1-.163,1.966,7.13,7.13,0,0,1,2.2,5.164h2.037a3.065,3.065,0,0,0,3.056-3.056V14H2Z" transform="translate(-2 -1.777)" fill="#e959a0"/>
  <path id="Path_80" data-name="Path 80" d="M19,3.019V7.093a1.019,1.019,0,1,0,2.037,0V3.019a1.019,1.019,0,1,0-2.037,0Z" transform="translate(-1.684 -2)" fill="#e959a0"/>
  <path id="Path_81" data-name="Path 81" d="M9,3.019V7.093a1.019,1.019,0,1,0,2.037,0V3.019A1.019,1.019,0,0,0,9,3.019Z" transform="translate(-1.87 -2)" fill="#e959a0"/>
  <path id="Path_82" data-name="Path 82" d="M40.019,2A1.019,1.019,0,0,0,39,3.019V7.093a1.019,1.019,0,0,0,2.037,0V3.019A1.019,1.019,0,0,0,40.019,2Z" transform="translate(-1.312 -2)" fill="#e959a0"/>
  <path id="Path_83" data-name="Path 83" d="M30.223,43.446A12.223,12.223,0,1,0,18,31.223,12.223,12.223,0,0,0,30.223,43.446ZM21.056,30.2a2.037,2.037,0,0,1,2.037-2.037h4.074V24.093A2.037,2.037,0,0,1,29.2,22.056h2.037a2.037,2.037,0,0,1,2.037,2.037v4.074h4.074A2.037,2.037,0,0,1,39.39,30.2v2.037a2.037,2.037,0,0,1-2.037,2.037H33.279v4.074a2.037,2.037,0,0,1-2.037,2.037H29.2a2.037,2.037,0,0,1-2.037-2.037V34.279H23.093a2.037,2.037,0,0,1-2.037-2.037Z" transform="translate(-1.703 -1.684)" fill="#e959a0"/>
  <path id="Path_84" data-name="Path 84" d="M29,3.019V7.093a1.019,1.019,0,0,0,2.037,0V3.019a1.019,1.019,0,0,0-2.037,0Z" transform="translate(-1.498 -2)" fill="#e959a0"/>
  <path id="Path_85" data-name="Path 85" d="M55.985,6H53.948V7.019a3.056,3.056,0,0,1-6.112,0V6H43.762V7.019a3.056,3.056,0,1,1-6.112,0V6H33.576V7.019a3.056,3.056,0,1,1-6.112,0V6H23.39V7.019a3.056,3.056,0,1,1-6.112,0V6H13.2V7.019a3.056,3.056,0,1,1-6.112,0V6H5.056A3.056,3.056,0,0,0,2,9.056v3.056H59.041V9.056A3.056,3.056,0,0,0,55.985,6Z" transform="translate(-2 -1.926)" fill="#e959a0"/>
  <path id="Path_86" data-name="Path 86" d="M51.037,7.093V3.019a1.019,1.019,0,0,0-2.037,0V7.093a1.019,1.019,0,0,0,2.037,0Z" transform="translate(-1.126 -2)" fill="#e959a0"/>
  <circle id="Ellipse_1" data-name="Ellipse 1" cx="4.103" cy="4.103" r="4.103" transform="translate(11.208 48.835)" fill="#e959a0"/>
  <path id="Path_87" data-name="Path 87" d="M35.971,51.989l-.448.581a2.048,2.048,0,0,0,.336,2.862l.8.632a1.019,1.019,0,0,0,1.263-1.6l-.795-.642,1.4-1.833Z" transform="translate(-1.385 -1.071)" fill="#e959a0"/>
  <path id="Path_88" data-name="Path 88" d="M52.884,52H50.516c-.02.031-.041.051-.061.081L46.62,57.093l-.795-.632a1.019,1.019,0,0,0-1.263,1.6l.8.632a2,2,0,0,0,1.253.438,1.962,1.962,0,0,0,.244-.01,2.08,2.08,0,0,0,1.375-.774l3.82-5.011A6.3,6.3,0,0,0,52.884,52Z" transform="translate(-1.216 -1.071)" fill="#e959a0"/>
</svg>
