<svg xmlns="http://www.w3.org/2000/svg" width="63.344" height="65.342" viewBox="0 0 63.344 65.342">
  <path id="online-marketing" d="M55.233,70.6a4.755,4.755,0,0,1-4.74,4.741H22.266A4.755,4.755,0,0,1,17.525,70.6V14.741A4.754,4.754,0,0,1,22.266,10h3.851l1.262,3.884a1.31,1.31,0,0,0,1.263.918H44.116a1.31,1.31,0,0,0,1.263-.918L46.641,10h3.851a4.755,4.755,0,0,1,4.74,4.741V27.778a35.66,35.66,0,0,1-8.79,2.8V30.4h-8.2a8.786,8.786,0,0,0-1.281,17.478l.972,7.2a3.87,3.87,0,0,0,4.655,3.269l1.926-.417a3.866,3.866,0,0,0,3.017-4.286l-.77-5.787a35.362,35.362,0,0,1,8.474,2.76ZM72.177,46.485l3.743,2.161a1.252,1.252,0,1,0,1.247-2.172l-3.743-2.161a1.252,1.252,0,0,0-1.247,2.172Zm1.247-12.419,3.743-2.161a1.252,1.252,0,1,0-1.247-2.172l-3.743,2.161a1.252,1.252,0,0,0,1.247,2.172Zm2.089,6.382h4.1a1.259,1.259,0,0,0,0-2.518h-4.1a1.259,1.259,0,0,0,0,2.518ZM66.9,42.54a3.381,3.381,0,1,0,0-6.7V27.47a2.857,2.857,0,0,0-5.7-.278c-3.491,2.792-8.75,5.044-14.753,6.087V45.1A33.364,33.364,0,0,1,61.2,51.22a2.98,2.98,0,0,0,2.84,2.546A2.865,2.865,0,0,0,66.9,50.909V42.54Zm-22.8,5.436H39.651l.912,6.754a1.213,1.213,0,0,0,1.46,1.029l1.926-.417A1.208,1.208,0,0,0,44.9,54Zm-5.855-2.656h5.548V33.06H38.239a6.129,6.129,0,1,0,0,12.259Z" transform="translate(-17.525 -10)" fill="#e959a0" fill-rule="evenodd"/>
</svg>
