<svg id="photo-camera" xmlns="http://www.w3.org/2000/svg" width="66.893" height="56.18" viewBox="0 0 66.893 56.18">
  <ellipse id="Ellipse_2" data-name="Ellipse 2" cx="10.619" cy="10.619" rx="10.619" ry="10.619" transform="translate(22.832 22.655)" fill="#e959a0"/>
  <path id="Path_89" data-name="Path 89" d="M30.911,6.533l-.676-3.382A3.93,3.93,0,0,0,26.392,0H4.52A3.93,3.93,0,0,0,.676,3.151L0,6.533Z" transform="translate(17.991 0)" fill="#e959a0"/>
  <path id="Path_90" data-name="Path 90" d="M61.014,0H5.879A5.886,5.886,0,0,0,0,5.879V39.849a5.886,5.886,0,0,0,5.879,5.879H61.014a5.886,5.886,0,0,0,5.879-5.879V5.879A5.886,5.886,0,0,0,61.014,0ZM16.723,12.281H10.452a1.96,1.96,0,1,1,0-3.92h6.271a1.96,1.96,0,1,1,0,3.92ZM33.447,37.366a14.5,14.5,0,1,1,14.5-14.5A14.519,14.519,0,0,1,33.447,37.366Z" transform="translate(0 10.452)" fill="#e959a0"/>
</svg>
