<svg xmlns="http://www.w3.org/2000/svg" width="54.981" height="64.807" viewBox="0 0 54.981 64.807">
  <g id="reminder" transform="translate(-371.021 -347.097)">
    <path id="Path_112" data-name="Path 112" d="M405.228,406.554c-1.057,3.362-3.235,5.392-6.766,5.349-3.446-.021-5.582-2.03-6.618-5.349H375.436a4.212,4.212,0,0,1-3.721-1.861,3.524,3.524,0,0,1,.106-4.335,43.193,43.193,0,0,0,8.225-19.791,95.654,95.654,0,0,0,.909-10.7c.275-7.273,4.821-14.018,11.777-16.344a3.26,3.26,0,0,0,.4-.19,5.6,5.6,0,0,1,1.84-4.884,5.313,5.313,0,0,1,3.7-1.353c3.172.063,5.117,2.347,5.328,6.259.211.106.423.211.74.359-2.6,4.313-2.981,8.754-.338,13.13s6.724,6.2,11.841,5.878c.085.973.148,1.924.211,2.854a49.494,49.494,0,0,0,4.25,17.317,42.88,42.88,0,0,0,4.5,7.422,3.856,3.856,0,0,1-2.368,6.132,8.022,8.022,0,0,1-1.417.127H406.243C405.9,406.554,405.587,406.554,405.228,406.554ZM395.9,352.616h5.244a2.594,2.594,0,0,0-2.495-2.812A2.648,2.648,0,0,0,395.9,352.616Z" transform="translate(0)" fill="#e959a0"/>
    <path id="Path_113" data-name="Path 113" d="M542.472,385.123a9.462,9.462,0,1,1,9.43-9.451A9.461,9.461,0,0,1,542.472,385.123Zm-1.332-11.481h0a13.017,13.017,0,0,0,.021,1.818,2.486,2.486,0,0,0,.507,1.269c.761.867,1.607,1.67,2.453,2.474a1.369,1.369,0,0,0,2.03.085,1.324,1.324,0,0,0-.169-1.966c-.55-.571-1.1-1.142-1.67-1.67a1.454,1.454,0,0,1-.507-1.163q.063-1.427,0-2.854a1.322,1.322,0,1,0-2.643.042C541.119,372.31,541.14,372.966,541.14,373.642Z" transform="translate(-127.73 -15.064)" fill="#e959a0"/>
  </g>
</svg>
