<svg xmlns="http://www.w3.org/2000/svg" width="8.699" height="19.636" viewBox="0 0 8.699 19.636">
  <g id="about_us" data-name="about us" transform="translate(-304.3 -386.4)">
    <path id="Path_132" data-name="Path 132" d="M324.369,386.4a1.344,1.344,0,0,0,.286.066,2.32,2.32,0,0,1,1.739,1.805,2.171,2.171,0,0,1-1.123,2.378,2.59,2.59,0,0,1-3.324-.682,2.182,2.182,0,0,1,.528-3.06,2.479,2.479,0,0,1,1.079-.462.132.132,0,0,0,.088-.022C323.862,386.4,324.127,386.4,324.369,386.4Z" transform="translate(-13.442 0)" fill="#c7b7bc"/>
    <path id="Path_133" data-name="Path 133" d="M312.732,427.3c-.088.374-.176.7-.264,1.057-.022.066-.066.088-.132.11a19.036,19.036,0,0,1-2.136.771,4.733,4.733,0,0,1-2.972-.088,2.392,2.392,0,0,1-1.563-1.761,3.909,3.909,0,0,1,0-1.431,22.433,22.433,0,0,1,.727-2.906c.242-.9.528-1.805.727-2.708a3.571,3.571,0,0,0,.066-1.365.8.8,0,0,0-.7-.7,3.132,3.132,0,0,0-1.563.088,4.128,4.128,0,0,1-.616.176c.088-.374.176-.7.264-1.057a.181.181,0,0,1,.11-.11,16.672,16.672,0,0,1,2.686-.881,4.329,4.329,0,0,1,2.686.286,2.47,2.47,0,0,1,1.321,2.4,18.3,18.3,0,0,1-.771,3.589c-.242.925-.572,1.849-.727,2.8a3.79,3.79,0,0,0-.066,1.321.8.8,0,0,0,.616.682,3,3,0,0,0,1.651-.044C312.292,427.453,312.49,427.387,312.732,427.3Z" transform="translate(0 -23.397)" fill="#c7b7bc"/>
  </g>
</svg>
