<svg xmlns="http://www.w3.org/2000/svg" width="25.902" height="22.766" viewBox="0 0 25.902 22.766">
  <g id="faq" transform="translate(-106.7 -253.583)">
    <path id="Path_138" data-name="Path 138" d="M106.7,260.461a11.888,11.888,0,0,1,.291-1.378,7.433,7.433,0,0,1,6.1-5.385,7.588,7.588,0,1,1,1.29,15.073h-6.324a.39.39,0,0,1-.25-.04c.365-.736.73-1.473,1.108-2.216-.182-.216-.372-.426-.547-.649a7.533,7.533,0,0,1-1.621-3.858.577.577,0,0,0-.041-.115C106.7,261.407,106.7,260.934,106.7,260.461Zm6.1-.831c.007-.088.014-.142.02-.2a1.527,1.527,0,0,1,3.034.338,1.52,1.52,0,0,1-.851,1.257,2.619,2.619,0,0,0-1.338,1.777,1.441,1.441,0,0,0-.061.608h1.473a1.4,1.4,0,0,1,.77-1.155,2.976,2.976,0,0,0,1.48-3.034,3.018,3.018,0,0,0-5.952-.169,1.235,1.235,0,0,0-.041.567C111.828,259.631,112.308,259.631,112.8,259.631Zm.8,6.067h1.473v-1.473H113.6Z" transform="translate(0 0)" fill="#c7b7bc"/>
    <path id="Path_139" data-name="Path 139" d="M279.114,378.564c.365.73.73,1.466,1.108,2.216a.439.439,0,0,1-.257.034c-2.088,0-4.175.007-6.27,0a7.589,7.589,0,0,1-7.486-6.445c-.034-.2.068-.243.209-.3a9.026,9.026,0,0,0,5.216-5.418,8.1,8.1,0,0,0,.486-2.365c.007-.162.027-.318.041-.473a7.57,7.57,0,0,1,6.952,12.749Zm-7.682-6.128h6.027v-1.459h-6.027Zm0,3.04h6.027V374h-6.027Z" transform="translate(-148.727 -104.468)" fill="#c7b7bc"/>
  </g>
</svg>
