<svg xmlns="http://www.w3.org/2000/svg" width="19.245" height="18.627" viewBox="0 0 19.245 18.627">
  <g id="home" transform="translate(-175.682 -302.64)">
    <path id="Path_131" data-name="Path 131" d="M194.926,310.946v.337c-.016.031-.023.071-.039.1a1.941,1.941,0,0,1-.941.98.5.5,0,0,1-.635-.094c-.078-.086-.172-.149-.267-.235a.328.328,0,0,0-.031.2v8.011a.931.931,0,0,1-.948,1.011q-1.775.012-3.551,0a.868.868,0,0,1-.87-.713,1.52,1.52,0,0,1-.023-.376v-5.518a.356.356,0,0,0-.024-.22h-4.225a.632.632,0,0,0-.023.235V318.5c0,.588.008,1.176,0,1.764a.94.94,0,0,1-.948,1q-1.681.012-3.363,0a.887.887,0,0,1-.847-.549,1.217,1.217,0,0,1-.094-.533v-8.034a.5.5,0,0,0-.024-.235c-.2.18-.392.353-.588.517a.921.921,0,0,1-1.223.008,2.392,2.392,0,0,1-.368-.376.891.891,0,0,1,.039-1.2c.125-.133.274-.259.408-.384l8.191-7.509a1.1,1.1,0,0,1,1.6.031q4.162,3.645,8.324,7.282A1.293,1.293,0,0,1,194.926,310.946Z" transform="translate(0)" fill="#e959a0"/>
  </g>
</svg>
