<svg xmlns="http://www.w3.org/2000/svg" width="19.245" height="19.259" viewBox="0 0 19.245 19.259">
  <g id="setting" transform="translate(-309.688 -308.7)">
    <path id="Path_134" data-name="Path 134" d="M317.164,308.7h.261a.643.643,0,0,1,.447.548c.005.1.025.2.04.3a1.4,1.4,0,0,0,1.4,1.185,1.419,1.419,0,0,0,1.381-1.236c.045-.321.07-.658.452-.794h.337c.025.035.065.03.1.04a10.732,10.732,0,0,1,2.934,1.221.61.61,0,0,1,.161.98,1.7,1.7,0,0,0-.276.422,1.4,1.4,0,0,0,1.864,1.869,4.647,4.647,0,0,0,.532-.352.548.548,0,0,1,.824.171,10.665,10.665,0,0,1,.954,1.954c.136.377.221.764.357,1.14v.337a.654.654,0,0,1-.5.407c-.105.02-.211.03-.316.045a1.4,1.4,0,0,0,.005,2.783c.332.04.673.065.809.452v.337c-.035.025-.03.065-.04.1a10.71,10.71,0,0,1-1.236,2.949.567.567,0,0,1-.889.2l-.226-.166a1.4,1.4,0,0,0-2.12,1.738,4.8,4.8,0,0,0,.337.5.55.55,0,0,1-.161.814,8.772,8.772,0,0,1-1.17.633,10.42,10.42,0,0,1-1.964.673.551.551,0,0,1-.693-.412,3.621,3.621,0,0,1-.07-.407,1.428,1.428,0,0,0-1.964-1.085,1.47,1.47,0,0,0-.854,1.3.588.588,0,0,1-.8.578c-.246-.06-.5-.131-.738-.206a10.525,10.525,0,0,1-2.18-.99c-.457-.266-.543-.633-.2-1.03a1.529,1.529,0,0,0,.387-1.085,1.406,1.406,0,0,0-1.678-1.291,1.743,1.743,0,0,0-.743.377.587.587,0,0,1-.964-.146,10.664,10.664,0,0,1-1.261-3.059.6.6,0,0,1,.532-.728,2.289,2.289,0,0,0,.332-.045,1.408,1.408,0,0,0,.99-2.034,1.471,1.471,0,0,0-1.266-.784.586.586,0,0,1-.573-.789c.065-.256.131-.507.211-.759a10.8,10.8,0,0,1,.99-2.18.608.608,0,0,1,1.02-.2,1.552,1.552,0,0,0,1.08.392,1.421,1.421,0,0,0,1.306-1.653,1.716,1.716,0,0,0-.382-.764.588.588,0,0,1,.131-.97,10.253,10.253,0,0,1,2.21-1.02C316.576,308.876,316.867,308.79,317.164,308.7Zm7.218,9.64a5.071,5.071,0,1,0-4.933,5.058A5.062,5.062,0,0,0,324.382,318.34Z" transform="translate(0)" fill="#c7b7bc"/>
    <path id="Path_135" data-name="Path 135" d="M410.441,404.471a5.071,5.071,0,1,1-4.928-5.083A5.05,5.05,0,0,1,410.441,404.471Zm-7.9-.025a2.821,2.821,0,0,0,5.641.02,2.821,2.821,0,1,0-5.641-.02Z" transform="translate(-86.059 -86.132)" fill="#c7b7bc"/>
  </g>
</svg>
