<svg xmlns="http://www.w3.org/2000/svg" width="18.245" height="23.949" viewBox="0 0 18.245 23.949">
  <g id="terms" transform="translate(-142.5 -217.4)">
    <path id="Path_136" data-name="Path 136" d="M158.917,309.885h-14.59a2.657,2.657,0,0,1-.955-.4,2.154,2.154,0,0,1-.873-1.822V292.42a2.162,2.162,0,0,1,.568-1.54,2.071,2.071,0,0,1,1.546-.673v.58a2.367,2.367,0,0,0,.076.644,2.075,2.075,0,0,0,2.068,1.57q4.867.009,9.728,0a2.113,2.113,0,0,0,2.144-2.173c.006-.205,0-.416,0-.627a2.077,2.077,0,0,1,1.271.428,2.1,2.1,0,0,1,.843,1.763V307.8a2.1,2.1,0,0,1-.832,1.652A2.65,2.65,0,0,1,158.917,309.885Zm-11.544-12.973-.832-.849a.7.7,0,1,0-1.007.961c.422.439.855.861,1.288,1.289a.728.728,0,0,0,1.189-.006c.867-.861,1.728-1.728,2.595-2.595a1.692,1.692,0,0,0,.17-.187.688.688,0,0,0-.34-1.066.72.72,0,0,0-.779.228c-.679.685-1.365,1.365-2.05,2.05A.672.672,0,0,1,147.373,296.912Zm.023,4.194c-.053-.047-.111-.1-.164-.152-.24-.234-.474-.474-.715-.709a.682.682,0,0,0-.662-.211.692.692,0,0,0-.322,1.189c.416.433.843.849,1.271,1.271a.733.733,0,0,0,1.207,0c.867-.861,1.728-1.728,2.595-2.595a1.338,1.338,0,0,0,.17-.193.682.682,0,0,0-.346-1.06.708.708,0,0,0-.761.217q-1.028,1.037-2.068,2.062A.413.413,0,0,1,147.4,301.106Zm.018,4.205c-.082-.023-.123-.094-.176-.146-.24-.234-.474-.474-.715-.709a.681.681,0,0,0-.662-.211.692.692,0,0,0-.322,1.189c.416.433.843.849,1.271,1.271a.733.733,0,0,0,1.207,0c.867-.861,1.728-1.728,2.595-2.595a1.339,1.339,0,0,0,.17-.193.682.682,0,0,0-.346-1.06.72.72,0,0,0-.779.234c-.679.685-1.365,1.365-2.05,2.05C147.543,305.206,147.5,305.282,147.414,305.311Zm7.708-8.106h2.056a.7.7,0,1,0,.023-1.394c-.785-.006-1.576,0-2.36,0h-1.775a.7.7,0,1,0-.023,1.394C153.734,297.217,154.431,297.2,155.122,297.2Zm-.006,4.211h2.056a.707.707,0,0,0,.7-.422.693.693,0,0,0-.662-.972c-.6-.012-1.2,0-1.8,0H153.1a.7.7,0,0,0-.709.433.692.692,0,0,0,.674.961C153.745,301.422,154.431,301.416,155.116,301.416Zm-.012,4.211h2.009c.492,0,.82-.281.814-.7s-.328-.691-.826-.691h-3.994a.729.729,0,0,0-.674.34.69.69,0,0,0,.615,1.054C153.734,305.633,154.419,305.627,155.1,305.627Z" transform="translate(0 -68.536)" fill="#c7b7bc"/>
    <path id="Path_137" data-name="Path 137" d="M204.475,220.252c.141-.562.275-1.1.416-1.646a1.457,1.457,0,0,1,1.546-1.207h1.728a1.443,1.443,0,0,1,1.505,1.166c.129.486.246.978.369,1.47.018.064.035.135.059.217h1.265a1.42,1.42,0,0,1,1.535,1.529c0,.193.006.392,0,.586a.7.7,0,0,1-.7.7c-.117.006-.234,0-.351,0h-9.371a.742.742,0,0,1-.72-.375,2.141,2.141,0,0,1,.392-2.085,1.426,1.426,0,0,1,.966-.351C203.562,220.252,204.007,220.252,204.475,220.252Zm3.508-.691a.694.694,0,1,0-.7.691A.706.706,0,0,0,207.984,219.561Z" transform="translate(-55.667 0)" fill="#c7b7bc"/>
  </g>
</svg>
